<svg width="32" height="32" viewBox="0 0 32 32" fill="none" xmlns="http://www.w3.org/2000/svg">
<path d="M23.1829 21.65H13.7579L11.9599 26H7.14594L16.1939 5.7H20.8339L29.9109 26H24.9809L23.1829 21.65ZM21.7039 18.083L18.4849 10.311L15.2659 18.083H21.7039Z" fill="#E63946"/>
<path d="M4.87696 10.746H6.93596V26H4.87696V10.746ZM5.92096 7.411C5.49562 7.411 5.13796 7.266 4.84796 6.976C4.55796 6.686 4.41296 6.338 4.41296 5.932C4.41296 5.54533 4.55796 5.207 4.84796 4.917C5.13796 4.627 5.49562 4.482 5.92096 4.482C6.34629 4.482 6.70396 4.627 6.99396 4.917C7.28396 5.18766 7.42896 5.51633 7.42896 5.903C7.42896 6.32833 7.28396 6.686 6.99396 6.976C6.70396 7.266 6.34629 7.411 5.92096 7.411Z" fill="white"/>
</svg>
