<svg width="524" height="183" viewBox="0 0 524 183" fill="none" xmlns="http://www.w3.org/2000/svg">
<path d="M172 149H148.75V179H91.5V149H0.75V111.5L75 3.99999H135.5L69.5 103.25H93.25V76.5H148.75V103.25H172V149ZM523.074 149H499.824V179H442.574V149H351.824V111.5L426.074 3.99999H486.574L420.574 103.25H444.324V76.5H499.824V103.25H523.074V149Z" fill="#1D3557"/>
<path d="M259.479 183C243.979 183 230.229 179.417 218.229 172.25C206.395 164.917 197.062 154.417 190.229 140.75C183.562 126.917 180.229 110.5 180.229 91.5C180.229 72.5 183.562 56.1667 190.229 42.5C197.062 28.6667 206.395 18.1667 218.229 11C230.229 3.66666 243.979 -5.126e-06 259.479 -5.126e-06C274.979 -5.126e-06 288.645 3.66666 300.479 11C312.479 18.1667 321.812 28.6667 328.479 42.5C335.312 56.1667 338.729 72.5 338.729 91.5C338.729 110.5 335.312 126.917 328.479 140.75C321.812 154.417 312.479 164.917 300.479 172.25C288.645 179.417 274.979 183 259.479 183ZM259.479 135.75C272.812 135.75 279.479 121 279.479 91.5C279.479 62 272.812 47.25 259.479 47.25C246.145 47.25 239.479 62 239.479 91.5C239.479 121 246.145 135.75 259.479 135.75Z" fill="#E63946"/>
</svg>
