<svg width="19" height="19" viewBox="0 0 19 19" fill="none" xmlns="http://www.w3.org/2000/svg">
<g clip-path="url(#clip0)">
<path d="M18.5989 9.29946C18.5989 4.16351 14.4354 0 9.29947 0C4.16351 0 0 4.16351 0 9.29946C0 13.941 3.40066 17.7883 7.84642 18.486V11.9876H5.48523V9.29946H7.84642V7.25068C7.84642 4.92 9.23481 3.6326 11.359 3.6326C12.3761 3.6326 13.4406 3.81423 13.4406 3.81423V6.10277H12.268C11.1129 6.10277 10.7525 6.81967 10.7525 7.55582V9.29946H13.3317L12.9194 11.9876H10.7525V18.486C15.1983 17.7883 18.5989 13.941 18.5989 9.29946Z" fill="white"/>
</g>
<defs>
<clipPath id="clip0">
<rect width="18.5989" height="18.5989" fill="white"/>
</clipPath>
</defs>
</svg>
