<svg id="Icono" xmlns="http://www.w3.org/2000/svg" viewBox="0 0 520.17 520.27"><defs><style>.cls-1{fill:#e63946;}</style></defs><path class="cls-1" d="M260.34,48.09c69.53,0,77.76.31,105.11,1.53,25.41,1.12,39.13,5.38,48.28,8.94A85.78,85.78,0,0,1,463,107.85c3.55,9.15,7.82,23,8.94,48.28,1.22,27.44,1.53,35.67,1.53,105.09S473.2,339,472,366.31c-1.12,25.41-5.39,39.13-8.94,48.28a85.78,85.78,0,0,1-49.31,49.29c-9.15,3.56-23,7.83-48.28,8.94-27.45,1.22-35.68,1.53-105.11,1.53s-77.77-.31-105.11-1.53c-25.42-1.11-39.14-5.38-48.29-8.94a80.49,80.49,0,0,1-29.89-19.41,80.1,80.1,0,0,1-19.41-29.88c-3.56-9.15-7.83-23-9-48.28-1.22-27.44-1.52-35.67-1.52-105.09s.3-77.75,1.52-105.09c1.12-25.41,5.39-39.13,9-48.28A80.53,80.53,0,0,1,77.05,78a80.18,80.18,0,0,1,29.89-19.41c9.15-3.56,23-7.82,48.29-8.94C182.57,48.4,190.81,48.09,260.34,48.09Zm0-46.85c-70.65,0-79.5.31-107.25,1.52S106.43,8.46,90,14.86A127.12,127.12,0,0,0,43.81,44.94,127.68,127.68,0,0,0,13.72,91C7.32,107.55,2.85,126.45,1.63,154.1.41,182,.1,190.79.1,261.42S.41,340.9,1.63,368.65s5.69,46.65,12.09,63.11a127.15,127.15,0,0,0,30.09,46.15,127.31,127.31,0,0,0,46.05,30c16.57,6.4,35.48,10.87,63.13,12.09s36.6,1.53,107.25,1.53,79.49-.31,107.24-1.53,46.66-5.69,63.13-12.09a132.91,132.91,0,0,0,76-76c6.4-16.56,10.87-35.46,12.09-63.11s1.53-36.59,1.53-107.22-.31-79.48-1.53-107.23-5.69-46.65-12.09-63.11a122,122,0,0,0-29.79-46.25,127.22,127.22,0,0,0-46.05-30c-16.57-6.4-35.48-10.87-63.13-12.09C339.83,1.55,331,1.24,260.34,1.24Z" transform="translate(-0.1 -1.24)"/><path class="cls-1" d="M260.34,127.78A133.65,133.65,0,1,0,394,261.42,133.7,133.7,0,0,0,260.34,127.78Zm0,220.34a86.7,86.7,0,1,1,86.71-86.7A86.72,86.72,0,0,1,260.34,348.12Z" transform="translate(-0.1 -1.24)"/><path class="cls-1" d="M430.51,122.49a31.21,31.21,0,1,1-31.21-31.2A31.21,31.21,0,0,1,430.51,122.49Z" transform="translate(-0.1 -1.24)"/></svg>