<svg width="181" height="33" viewBox="0 0 181 33" fill="none" xmlns="http://www.w3.org/2000/svg">
<path d="M3.168 9.3259H5.44V26.1579H3.168V9.3259ZM4.32 5.6459C3.85067 5.6459 3.456 5.4859 3.136 5.1659C2.816 4.8459 2.656 4.4619 2.656 4.0139C2.656 3.58723 2.816 3.2139 3.136 2.8939C3.456 2.5739 3.85067 2.4139 4.32 2.4139C4.78933 2.4139 5.184 2.5739 5.504 2.8939C5.824 3.19256 5.984 3.55523 5.984 3.9819C5.984 4.45123 5.824 4.8459 5.504 5.1659C5.184 5.4859 4.78933 5.6459 4.32 5.6459ZM17.5378 9.1979C19.6498 9.1979 21.3244 9.81656 22.5618 11.0539C23.8204 12.2699 24.4497 14.0512 24.4497 16.3979V26.1579H22.1778V16.6219C22.1778 14.8726 21.7404 13.5392 20.8658 12.6219C19.9911 11.7046 18.7431 11.2459 17.1217 11.2459C15.3084 11.2459 13.8684 11.7899 12.8018 12.8779C11.7564 13.9446 11.2337 15.4272 11.2337 17.3259V26.1579H8.96175V9.3259H11.1378V12.4299C11.7564 11.4059 12.6098 10.6166 13.6978 10.0619C14.8071 9.4859 16.0871 9.1979 17.5378 9.1979ZM43.4645 9.3259V24.1099C43.4645 26.9686 42.7605 29.0806 41.3525 30.4459C39.9658 31.8326 37.8645 32.5259 35.0485 32.5259C33.4912 32.5259 32.0085 32.2912 30.6005 31.8219C29.2138 31.3739 28.0832 30.7446 27.2085 29.9339L28.3605 28.2059C29.1712 28.9312 30.1525 29.4966 31.3045 29.9019C32.4778 30.3072 33.7045 30.5099 34.9845 30.5099C37.1178 30.5099 38.6858 30.0086 39.6885 29.0059C40.6912 28.0246 41.1925 26.4886 41.1925 24.3979V22.2539C40.4885 23.3206 39.5605 24.1312 38.4085 24.6859C37.2778 25.2406 36.0192 25.5179 34.6325 25.5179C33.0538 25.5179 31.6138 25.1766 30.3125 24.4939C29.0325 23.7899 28.0192 22.8192 27.2725 21.5819C26.5472 20.3232 26.1845 18.9046 26.1845 17.3259C26.1845 15.7472 26.5472 14.3392 27.2725 13.1019C28.0192 11.8646 29.0325 10.9046 30.3125 10.2219C31.5925 9.53923 33.0325 9.1979 34.6325 9.1979C36.0618 9.1979 37.3525 9.4859 38.5045 10.0619C39.6565 10.6379 40.5845 11.4699 41.2885 12.5579V9.3259H43.4645ZM34.8565 23.5019C36.0725 23.5019 37.1712 23.2459 38.1525 22.7339C39.1338 22.2006 39.8912 21.4646 40.4245 20.5259C40.9792 19.5872 41.2565 18.5206 41.2565 17.3259C41.2565 16.1312 40.9792 15.0752 40.4245 14.1579C39.8912 13.2192 39.1338 12.4939 38.1525 11.9819C37.1925 11.4486 36.0938 11.1819 34.8565 11.1819C33.6405 11.1819 32.5418 11.4379 31.5605 11.9499C30.6005 12.4619 29.8432 13.1872 29.2885 14.1259C28.7552 15.0646 28.4885 16.1312 28.4885 17.3259C28.4885 18.5206 28.7552 19.5872 29.2885 20.5259C29.8432 21.4646 30.6005 22.2006 31.5605 22.7339C32.5418 23.2459 33.6405 23.5019 34.8565 23.5019ZM47.018 2.4139H49.29V26.1579H47.018V2.4139ZM67.4678 18.4459H53.3877C53.5157 20.1952 54.1877 21.6139 55.4037 22.7019C56.6197 23.7686 58.1557 24.3019 60.0117 24.3019C61.0571 24.3019 62.0171 24.1206 62.8918 23.7579C63.7664 23.3739 64.5237 22.8192 65.1637 22.0939L66.4438 23.5659C65.6971 24.4619 64.7584 25.1446 63.6277 25.6139C62.5184 26.0832 61.2917 26.3179 59.9478 26.3179C58.2197 26.3179 56.6837 25.9552 55.3397 25.2299C54.0171 24.4832 52.9824 23.4592 52.2357 22.1579C51.4891 20.8566 51.1157 19.3846 51.1157 17.7419C51.1157 16.0992 51.4677 14.6272 52.1717 13.3259C52.8971 12.0246 53.8784 11.0112 55.1157 10.2859C56.3744 9.56056 57.7824 9.1979 59.3397 9.1979C60.8971 9.1979 62.2944 9.56056 63.5317 10.2859C64.7691 11.0112 65.7397 12.0246 66.4438 13.3259C67.1478 14.6059 67.4998 16.0779 67.4998 17.7419L67.4678 18.4459ZM59.3397 11.1499C57.7184 11.1499 56.3531 11.6726 55.2437 12.7179C54.1557 13.7419 53.5371 15.0859 53.3877 16.7499H65.3237C65.1744 15.0859 64.5451 13.7419 63.4358 12.7179C62.3478 11.6726 60.9824 11.1499 59.3397 11.1499ZM61.6438 2.7339H64.6838L59.4998 6.7019H57.2597L61.6438 2.7339ZM73.8363 26.3179C72.4709 26.3179 71.1589 26.1259 69.9003 25.7419C68.6629 25.3366 67.6923 24.8352 66.9883 24.2379L68.0123 22.4459C68.7163 23.0006 69.6016 23.4592 70.6683 23.8219C71.7349 24.1632 72.8443 24.3339 73.9963 24.3339C75.5323 24.3339 76.6629 24.0992 77.3883 23.6299C78.1349 23.1392 78.5083 22.4566 78.5083 21.5819C78.5083 20.9632 78.3056 20.4832 77.9003 20.1419C77.4949 19.7792 76.9829 19.5126 76.3643 19.3419C75.7456 19.1499 74.9243 18.9686 73.9003 18.7979C72.5349 18.5419 71.4363 18.2859 70.6043 18.0299C69.7723 17.7526 69.0576 17.2939 68.4603 16.6539C67.8843 16.0139 67.5963 15.1286 67.5963 13.9979C67.5963 12.5899 68.1829 11.4379 69.3563 10.5419C70.5296 9.6459 72.1616 9.1979 74.2523 9.1979C75.3403 9.1979 76.4283 9.34723 77.5163 9.6459C78.6043 9.92323 79.5003 10.2966 80.2043 10.7659L79.2123 12.5899C77.8256 11.6299 76.1723 11.1499 74.2523 11.1499C72.8016 11.1499 71.7029 11.4059 70.9563 11.9179C70.2309 12.4299 69.8683 13.1019 69.8683 13.9339C69.8683 14.5739 70.0709 15.0859 70.4763 15.4699C70.9029 15.8539 71.4256 16.1419 72.0443 16.3339C72.6629 16.5046 73.5163 16.6859 74.6042 16.8779C75.9483 17.1339 77.0256 17.3899 77.8363 17.6459C78.6469 17.9019 79.3403 18.3392 79.9163 18.9579C80.4923 19.5766 80.7803 20.4299 80.7803 21.5179C80.7803 22.9899 80.1616 24.1632 78.9243 25.0379C77.7083 25.8912 76.0123 26.3179 73.8363 26.3179Z" fill="#F1FAEE"/>
<path d="M88.984 19.2539C88.296 19.2539 87.676 19.1139 87.124 18.8339C86.58 18.5459 86.152 18.1499 85.84 17.6459C85.536 17.1419 85.384 16.5699 85.384 15.9299C85.384 15.2899 85.536 14.7179 85.84 14.2139C86.152 13.7099 86.58 13.3179 87.124 13.0379C87.676 12.7499 88.296 12.6059 88.984 12.6059C89.664 12.6059 90.256 12.7499 90.76 13.0379C91.272 13.3179 91.644 13.7219 91.876 14.2499L90.424 15.0299C90.088 14.4379 89.604 14.1419 88.972 14.1419C88.484 14.1419 88.08 14.3019 87.76 14.6219C87.44 14.9419 87.28 15.3779 87.28 15.9299C87.28 16.4819 87.44 16.9179 87.76 17.2379C88.08 17.5579 88.484 17.7179 88.972 17.7179C89.612 17.7179 90.096 17.4219 90.424 16.8299L91.876 17.6219C91.644 18.1339 91.272 18.5339 90.76 18.8219C90.256 19.1099 89.664 19.2539 88.984 19.2539ZM96.1438 19.2539C95.4638 19.2539 94.8518 19.1139 94.3078 18.8339C93.7718 18.5459 93.3518 18.1499 93.0478 17.6459C92.7438 17.1419 92.5918 16.5699 92.5918 15.9299C92.5918 15.2899 92.7438 14.7179 93.0478 14.2139C93.3518 13.7099 93.7718 13.3179 94.3078 13.0379C94.8518 12.7499 95.4638 12.6059 96.1438 12.6059C96.8238 12.6059 97.4318 12.7499 97.9678 13.0379C98.5038 13.3179 98.9238 13.7099 99.2278 14.2139C99.5318 14.7179 99.6838 15.2899 99.6838 15.9299C99.6838 16.5699 99.5318 17.1419 99.2278 17.6459C98.9238 18.1499 98.5038 18.5459 97.9678 18.8339C97.4318 19.1139 96.8238 19.2539 96.1438 19.2539ZM96.1438 17.7179C96.6238 17.7179 97.0158 17.5579 97.3198 17.2379C97.6318 16.9099 97.7878 16.4739 97.7878 15.9299C97.7878 15.3859 97.6318 14.9539 97.3198 14.6339C97.0158 14.3059 96.6238 14.1419 96.1438 14.1419C95.6638 14.1419 95.2678 14.3059 94.9558 14.6339C94.6438 14.9539 94.4878 15.3859 94.4878 15.9299C94.4878 16.4739 94.6438 16.9099 94.9558 17.2379C95.2678 17.5579 95.6638 17.7179 96.1438 17.7179ZM105.059 12.6059C105.859 12.6059 106.503 12.8459 106.991 13.3259C107.487 13.8059 107.735 14.5179 107.735 15.4619V19.1579H105.863V15.7499C105.863 15.2379 105.751 14.8579 105.527 14.6099C105.303 14.3539 104.979 14.2259 104.555 14.2259C104.083 14.2259 103.707 14.3739 103.427 14.6699C103.147 14.9579 103.007 15.3899 103.007 15.9659V19.1579H101.135V12.7019H102.923V13.4579C103.171 13.1859 103.479 12.9779 103.847 12.8339C104.215 12.6819 104.619 12.6059 105.059 12.6059Z" fill="white"/>
<path d="M128.408 21.2H118.008L116.024 26H110.712L120.696 3.6H125.816L135.832 26H130.392L128.408 21.2ZM126.776 17.264L123.224 8.688L119.672 17.264H126.776ZM139.004 8.784H143.996V26H139.004V8.784ZM141.5 6.384C140.583 6.384 139.836 6.11733 139.26 5.584C138.684 5.05067 138.396 4.38933 138.396 3.6C138.396 2.81067 138.684 2.14933 139.26 1.616C139.836 1.08267 140.583 0.815998 141.5 0.815998C142.417 0.815998 143.164 1.072 143.74 1.584C144.316 2.096 144.604 2.736 144.604 3.504C144.604 4.336 144.316 5.02933 143.74 5.584C143.164 6.11733 142.417 6.384 141.5 6.384ZM149.829 2.256H154.821V26H149.829V2.256ZM177.998 8.784V26H173.262V23.952C172.601 24.6987 171.811 25.2747 170.894 25.68C169.977 26.064 168.985 26.256 167.918 26.256C165.657 26.256 163.865 25.6053 162.542 24.304C161.219 23.0027 160.558 21.072 160.558 18.512V8.784H165.55V17.776C165.55 20.5493 166.713 21.936 169.038 21.936C170.233 21.936 171.193 21.552 171.918 20.784C172.643 19.9947 173.006 18.832 173.006 17.296V8.784H177.998Z" fill="#E63946"/>
</svg>
