<svg width="135" height="37" viewBox="0 0 135 37" fill="none" xmlns="http://www.w3.org/2000/svg">
<path d="M24.192 30.672V36H3.864V1.296H10.32V30.672H24.192ZM60.8788 18.648C60.8788 21.192 60.4548 23.552 59.6068 25.728C58.7748 27.888 57.5908 29.76 56.0548 31.344C54.5188 32.928 52.6708 34.168 50.5108 35.064C48.3508 35.944 45.9508 36.384 43.3108 36.384C40.6868 36.384 38.2948 35.944 36.1348 35.064C33.9748 34.168 32.1188 32.928 30.5668 31.344C29.0308 29.76 27.8388 27.888 26.9908 25.728C26.1428 23.552 25.7188 21.192 25.7188 18.648C25.7188 16.104 26.1428 13.752 26.9908 11.592C27.8388 9.416 29.0308 7.536 30.5668 5.952C32.1188 4.368 33.9748 3.136 36.1348 2.256C38.2948 1.36 40.6868 0.912 43.3108 0.912C45.0708 0.912 46.7268 1.12 48.2788 1.536C49.8308 1.936 51.2548 2.512 52.5508 3.264C53.8468 4 55.0068 4.904 56.0308 5.976C57.0708 7.032 57.9508 8.216 58.6708 9.528C59.3908 10.84 59.9348 12.264 60.3028 13.8C60.6868 15.336 60.8788 16.952 60.8788 18.648ZM54.2788 18.648C54.2788 16.744 54.0228 15.04 53.5108 13.536C52.9988 12.016 52.2708 10.728 51.3268 9.672C50.3828 8.616 49.2308 7.808 47.8708 7.248C46.5268 6.688 45.0068 6.408 43.3108 6.408C41.6148 6.408 40.0868 6.688 38.7268 7.248C37.3828 7.808 36.2308 8.616 35.2708 9.672C34.3268 10.728 33.5988 12.016 33.0868 13.536C32.5748 15.04 32.3188 16.744 32.3188 18.648C32.3188 20.552 32.5748 22.264 33.0868 23.784C33.5988 25.288 34.3268 26.568 35.2708 27.624C36.2308 28.664 37.3828 29.464 38.7268 30.024C40.0868 30.584 41.6148 30.864 43.3108 30.864C45.0068 30.864 46.5268 30.584 47.8708 30.024C49.2308 29.464 50.3828 28.664 51.3268 27.624C52.2708 26.568 52.9988 25.288 53.5108 23.784C54.0228 22.264 54.2788 20.552 54.2788 18.648ZM95.3564 18.6V32.64C93.5964 33.936 91.7164 34.888 89.7164 35.496C87.7324 36.088 85.6044 36.384 83.3324 36.384C80.5004 36.384 77.9324 35.944 75.6284 35.064C73.3404 34.184 71.3804 32.96 69.7484 31.392C68.1324 29.824 66.8844 27.952 66.0044 25.776C65.1244 23.6 64.6844 21.224 64.6844 18.648C64.6844 16.04 65.1084 13.648 65.9564 11.472C66.8044 9.296 68.0044 7.424 69.5564 5.856C71.1244 4.288 73.0204 3.072 75.2444 2.208C77.4684 1.344 79.9644 0.912 82.7324 0.912C84.1404 0.912 85.4524 1.024 86.6684 1.248C87.9004 1.472 89.0364 1.784 90.0764 2.184C91.1324 2.568 92.0924 3.04 92.9564 3.6C93.8204 4.16 94.6124 4.776 95.3324 5.448L93.4844 8.376C93.1964 8.84 92.8204 9.128 92.3564 9.24C91.8924 9.336 91.3884 9.216 90.8444 8.88C90.3164 8.576 89.7884 8.272 89.2604 7.968C88.7324 7.664 88.1404 7.4 87.4844 7.176C86.8444 6.952 86.1164 6.768 85.3004 6.624C84.5004 6.48 83.5724 6.408 82.5164 6.408C80.8044 6.408 79.2524 6.696 77.8604 7.272C76.4844 7.848 75.3084 8.672 74.3324 9.744C73.3564 10.816 72.6044 12.104 72.0764 13.608C71.5484 15.112 71.2844 16.792 71.2844 18.648C71.2844 20.632 71.5644 22.408 72.1244 23.976C72.7004 25.528 73.5004 26.848 74.5244 27.936C75.5644 29.008 76.8124 29.832 78.2684 30.408C79.7244 30.968 81.3484 31.248 83.1404 31.248C84.4204 31.248 85.5644 31.112 86.5724 30.84C87.5804 30.568 88.5644 30.2 89.5244 29.736V23.448H85.1564C84.7404 23.448 84.4124 23.336 84.1724 23.112C83.9484 22.872 83.8364 22.584 83.8364 22.248V18.6H95.3564ZM134.873 18.648C134.873 21.192 134.449 23.552 133.601 25.728C132.769 27.888 131.585 29.76 130.049 31.344C128.512 32.928 126.664 34.168 124.504 35.064C122.344 35.944 119.944 36.384 117.304 36.384C114.68 36.384 112.288 35.944 110.128 35.064C107.968 34.168 106.112 32.928 104.56 31.344C103.024 29.76 101.832 27.888 100.984 25.728C100.136 23.552 99.7125 21.192 99.7125 18.648C99.7125 16.104 100.136 13.752 100.984 11.592C101.832 9.416 103.024 7.536 104.56 5.952C106.112 4.368 107.968 3.136 110.128 2.256C112.288 1.36 114.68 0.912 117.304 0.912C119.064 0.912 120.72 1.12 122.273 1.536C123.825 1.936 125.249 2.512 126.545 3.264C127.84 4 129 4.904 130.024 5.976C131.065 7.032 131.945 8.216 132.665 9.528C133.384 10.84 133.928 12.264 134.296 13.8C134.681 15.336 134.873 16.952 134.873 18.648ZM128.273 18.648C128.273 16.744 128.017 15.04 127.504 13.536C126.993 12.016 126.265 10.728 125.321 9.672C124.377 8.616 123.224 7.808 121.864 7.248C120.52 6.688 119 6.408 117.304 6.408C115.608 6.408 114.08 6.688 112.72 7.248C111.376 7.808 110.224 8.616 109.264 9.672C108.32 10.728 107.592 12.016 107.08 13.536C106.568 15.04 106.312 16.744 106.312 18.648C106.312 20.552 106.568 22.264 107.08 23.784C107.592 25.288 108.32 26.568 109.264 27.624C110.224 28.664 111.376 29.464 112.72 30.024C114.08 30.584 115.608 30.864 117.304 30.864C119 30.864 120.52 30.584 121.864 30.024C123.224 29.464 124.377 28.664 125.321 27.624C126.265 26.568 126.993 25.288 127.504 23.784C128.017 22.264 128.273 20.552 128.273 18.648Z" fill="#F1FAEE"/>
</svg>
