<svg id="Capa_1" data-name="Capa 1" xmlns="http://www.w3.org/2000/svg" viewBox="0 0 515.92 518.4"><defs><style>.cls-1{fill:#fff;fill-rule:evenodd;}</style></defs><path class="cls-1" d="M440.75,75.34A255.21,255.21,0,0,0,259,0C117.45,0,2.21,115.23,2.15,256.86A256.53,256.53,0,0,0,36.44,385.29L0,518.4l136.18-35.72A256.64,256.64,0,0,0,258.93,514H259c141.58,0,256.83-115.25,256.88-256.88A255.3,255.3,0,0,0,440.75,75.34ZM259,470.56H259A213.2,213.2,0,0,1,150.28,440.8l-7.79-4.63-80.81,21.2,21.57-78.79-5.08-8.07A212.94,212.94,0,0,1,45.53,256.88c0-117.72,95.82-213.49,213.59-213.49A213.54,213.54,0,0,1,472.55,257.05C472.5,374.78,376.72,470.56,259,470.56ZM376.15,310.65c-6.41-3.21-38-18.73-43.86-20.88s-10.16-3.21-14.43,3.22-16.58,20.88-20.33,25.16S290,323,283.62,319.76s-27.1-10-51.62-31.86c-19.07-17-32-38-35.7-44.46s0-9.57,2.81-13.1c6.95-8.63,13.91-17.68,16-22s1.07-8-.54-11.24-14.44-34.81-19.78-47.66c-5.22-12.51-10.5-10.82-14.45-11-3.74-.19-8-.23-12.3-.23a23.59,23.59,0,0,0-17.12,8c-5.88,6.42-22.46,21.95-22.46,53.54s23,62.12,26.21,66.4S200,335.33,264.37,363.13A366.56,366.56,0,0,0,301,376.65c15.38,4.89,29.36,4.2,40.43,2.54,12.33-1.84,38-15.53,43.32-30.52s5.35-27.84,3.74-30.52S382.57,313.87,376.15,310.65Z"/></svg>